# File created by Blade
# Date/Time:  Thu Sep 25 19:43:58 2014
# Frame Rate: 120.000 fps
#------------------------------------------------------
:FULLY-SPECIFIED
:DEGREES
524
root 3.245518 13.645870 -8.863102 8.549743 16.282042 -22.803216
Spine -2.303145 -3.382422 -40.531695
Head 0.049055 -0.363244 -42.652461
LeftShoulder -4.007875 13.356696 20.789312
LeftArm 11.743928 -8.405844 -56.140755
LeftForeArm 38.950758 -0.000000 16.659312
LeftHand -32.145955 -0.000000 108.754829
LeftHandThumb1 -26.253704 0.000000 33.147579
RightShoulder -24.887470 32.055235 -63.827067
RightArm 63.751256 39.640604 45.278947
RightForeArm 31.023382 -0.000000 25.756540
RightHand 4.922706 -0.000000 -6.835099
RightHandThumb1 -24.326973 -0.000000 -32.862282
LeftUpLeg -106.039590 45.667298 25.924744
LeftLeg 127.212914 -0.000000 -0.000000
LeftFoot -29.373445 -19.158019 -14.983295
LeftToeBase 2.402137 -0.000000 -0.000000
RightUpLeg -1.107849 -20.161219 -39.522921
RightLeg 8.610425 -0.000000 -0.000000
RightFoot 6.742071 -20.102009 1.181884
RightToeBase 8.188011 -0.000000 -0.000000
525
root 3.244094 13.645337 -8.873400 8.505656 16.291711 -22.798130
Spine -2.329316 -3.281799 -40.561353
Head -0.147423 -0.145386 -42.447891
LeftShoulder -3.923734 13.292659 20.847425
LeftArm 11.774983 -8.431141 -56.186859
LeftForeArm 39.053622 0.000000 16.633077
LeftHand -32.096778 -0.000000 108.765260
LeftHandThumb1 -26.253704 0.000000 33.147579
RightShoulder -24.877001 32.047447 -63.787131
RightArm 64.741779 39.411612 45.570376
RightForeArm 31.083732 -0.000000 25.564947
RightHand 4.787802 -0.000000 -6.806787
RightHandThumb1 -24.326973 -0.000000 -32.862282
LeftUpLeg -105.979442 45.624067 25.994332
LeftLeg 127.199937 -0.000000 -0.000000
LeftFoot -29.337599 -19.213746 -14.932800
LeftToeBase 2.323571 -0.000000 -0.000000
RightUpLeg -1.076343 -20.186495 -39.543704
RightLeg 8.604221 -0.000000 -0.000000
RightFoot 6.788156 -20.093182 1.116095
RightToeBase 8.204588 -0.000000 -0.000000
526
root 3.242132 13.645388 -8.883962 8.460191 16.284209 -22.810051
Spine -2.351826 -3.202863 -40.553661
Head -0.447695 -0.002980 -42.335624
LeftShoulder -3.904319 13.231421 20.838890
LeftArm 11.830854 -8.430038 -56.188685
LeftForeArm 39.126301 -0.000000 16.591276
LeftHand -32.082580 -0.000000 108.805855
LeftHandThumb1 -26.253704 0.000000 33.147579
RightShoulder -24.927079 32.179700 -63.883204
RightArm 65.636515 39.177013 46.027056
RightForeArm 31.189449 -0.000000 25.437344
RightHand 4.763865 -0.000000 -6.459492
RightHandThumb1 -24.326973 -0.000000 -32.862282
LeftUpLeg -105.958910 45.594231 26.012585
LeftLeg 127.189587 -0.000000 -0.000000
LeftFoot -29.344550 -19.197169 -14.947098
LeftToeBase 2.390996 -0.000000 -0.000000
RightUpLeg -1.064802 -20.193517 -39.541446
RightLeg 8.600082 -0.000000 -0.000000
RightFoot 6.834402 -20.097551 1.036459
RightToeBase 8.198751 -0.000000 -0.000000
527
root 3.239799 13.645207 -8.895939 8.416093 16.256036 -22.837864
Spine -2.373218 -3.101807 -40.519438
Head -0.752416 0.130315 -42.238058
LeftShoulder -3.895800 13.101670 20.804023
LeftArm 11.845975 -8.417241 -56.176570
LeftForeArm 39.234395 -0.000000 16.554381
LeftHand -32.031687 -0.000000 108.812776
LeftHandThumb1 -26.253704 0.000000 33.147579
RightShoulder -25.039556 32.372568 -64.063222
RightArm 66.303065 38.842543 46.328938
RightForeArm 31.162845 -0.000000 25.389793
RightHand 4.792323 -0.000000 -6.482820
RightHandThumb1 -24.326973 -0.000000 -32.862282
LeftUpLeg -105.936207 45.586637 26.049819
LeftLeg 127.174820 -0.000000 -0.000000
LeftFoot -29.329187 -19.168354 -14.961306
LeftToeBase 2.388661 -0.000000 -0.000000
RightUpLeg -1.092156 -20.162348 -39.515419
RightLeg 8.621515 -0.000000 -0.000000
RightFoot 6.907912 -20.140844 0.893245
RightToeBase 8.239188 -0.000000 -0.000000
528
root 3.237816 13.644485 -8.906098 8.363484 16.233369 -22.859363
Spine -2.384176 -2.971554 -40.498847
Head -1.058937 0.140338 -42.160849
LeftShoulder -3.842874 12.924113 20.800820
LeftArm 11.795154 -8.391655 -56.172457
LeftForeArm 39.304504 0.000000 16.562889
LeftHand -32.011680 -0.000000 108.809382
LeftHandThumb1 -26.253704 0.000000 33.147579
RightShoulder -25.064231 32.374620 -64.058845
RightArm 67.123970 38.690530 46.658160
RightForeArm 31.001291 0.000000 25.343412
RightHand 4.689276 -0.000000 -6.502157
RightHandThumb1 -24.326973 -0.000000 -32.862282
LeftUpLeg -105.905312 45.580968 26.086824
LeftLeg 127.167901 -0.000000 -0.000000
LeftFoot -29.351066 -19.134285 -14.909677
LeftToeBase 2.508575 -0.000000 -0.000000
RightUpLeg -1.097719 -20.178893 -39.503426
RightLeg 8.630830 -0.000000 -0.000000
RightFoot 6.952739 -20.136613 0.803339
RightToeBase 8.297074 -0.000000 -0.000000
529
root 3.237270 13.643114 -8.917487 8.320545 16.202608 -22.862775
Spine -2.398960 -2.862297 -40.489769
Head -1.343770 0.153723 -42.118667
LeftShoulder -3.827204 12.814706 20.783565
LeftArm 11.801995 -8.335799 -56.154489
LeftForeArm 39.311570 -0.000000 16.571295
LeftHand -31.951193 0.000000 108.788484
LeftHandThumb1 -26.253704 0.000000 33.147579
RightShoulder -25.075013 32.425592 -64.056597
RightArm 67.821278 38.517493 46.881182
RightForeArm 30.817347 -0.000000 25.270248
RightHand 4.665652 -0.000000 -6.468858
RightHandThumb1 -24.326973 -0.000000 -32.862282
LeftUpLeg -105.873116 45.573715 26.104990
LeftLeg 127.157150 -0.000000 -0.000000
LeftFoot -29.366658 -19.125013 -14.921913
LeftToeBase 2.591564 -0.000000 -0.000000
RightUpLeg -1.118568 -20.167183 -39.510430
RightLeg 8.656174 -0.000000 -0.000000
RightFoot 6.979516 -20.138833 0.744044
RightToeBase 8.253659 -0.000000 -0.000000
530
root 3.237185 13.642993 -8.927877 8.260426 16.176135 -22.869891
Spine -2.400397 -2.708820 -40.489375
Head -1.599241 0.041149 -42.103033
LeftShoulder -3.798132 12.747161 20.772985
LeftArm 11.896336 -8.346424 -56.149445
LeftForeArm 39.361264 -0.000000 16.530272
LeftHand -31.867691 0.000000 108.759532
LeftHandThumb1 -26.253704 0.000000 33.147579
RightShoulder -25.115781 32.571626 -64.144521
RightArm 68.290711 38.287349 47.070367
RightForeArm 30.556011 -0.000000 25.252875
RightHand 4.639526 -0.000000 -6.453214
RightHandThumb1 -24.326973 -0.000000 -32.862282
LeftUpLeg -105.835470 45.560913 26.120422
LeftLeg 127.153194 -0.000000 -0.000000
LeftFoot -29.375328 -19.083612 -14.899301
LeftToeBase 2.627710 -0.000000 -0.000000
RightUpLeg -1.121670 -20.128401 -39.514068
RightLeg 8.672583 -0.000000 -0.000000
RightFoot 7.054088 -20.150880 0.628683
RightToeBase 8.236174 -0.000000 -0.000000
